HIERARCHY
ROOT Hips
{
	OFFSET 0.000000 0.000000 0.000000 
	CHANNELS 6 Xposition Yposition Zposition Zrotation Yrotation Xrotation
	JOINT LeftUpLeg
	{
		OFFSET 1.363060 -1.794630 0.839290 
		CHANNELS 3 Zrotation Yrotation Xrotation
		JOINT LeftLeg
		{
			OFFSET 2.448110 -6.726130 0.000000 
			CHANNELS 3 Zrotation Yrotation Xrotation
			JOINT LeftFoot
			{
				OFFSET 2.562200 -7.039590 0.000000 
				CHANNELS 3 Zrotation Yrotation Xrotation
				JOINT LeftToeBase
				{
					OFFSET 0.157640 -0.433110 2.322550 
					CHANNELS 3 Zrotation Yrotation Xrotation
					End Site
					{
						OFFSET 0.000000 0.000000 0.000000 
					}
				}
			}
		}
	}
	JOINT RightUpLeg
	{
		OFFSET -1.305520 -1.794630 0.839290 
		CHANNELS 3 Zrotation Yrotation Xrotation
		JOINT RightLeg
		{
			OFFSET -2.542530 -6.985550 0.000000 
			CHANNELS 3 Zrotation Yrotation Xrotation
			JOINT RightFoot
			{
				OFFSET -2.568260 -7.056230 0.000000 
				CHANNELS 3 Zrotation Yrotation Xrotation
				JOINT RightToeBase
				{
					OFFSET -0.164730 -0.452590 2.363150 
					CHANNELS 3 Zrotation Yrotation Xrotation
					End Site
					{
						OFFSET 0.000000 0.000000 0.000000 
					}
				}
			}
		}
	}
	JOINT Spine
	{
		OFFSET 0.028270 2.035590 -0.193380 
		CHANNELS 3 Zrotation Yrotation Xrotation
		JOINT Spine1
		{
			OFFSET 0.056720 2.048850 -0.042750 
			CHANNELS 3 Zrotation Yrotation Xrotation
			JOINT Neck1
			{
				OFFSET -0.054170 1.746240 0.172020 
				CHANNELS 3 Zrotation Yrotation Xrotation
				JOINT Head
				{
					OFFSET 0.104070 1.761360 -0.123970 
					CHANNELS 3 Zrotation Yrotation Xrotation
					End Site
					{
						OFFSET 0.000000 0.000000 0.000000 
					}
				}
			}
			JOINT LeftArm
			{
				OFFSET 3.362410 1.200890 -0.311210 
				CHANNELS 3 Zrotation Yrotation Xrotation
				JOINT LeftForeArm
				{
					OFFSET 4.983000 -0.000000 -0.000000 
					CHANNELS 3 Zrotation Yrotation Xrotation
					JOINT LeftHand
					{
						OFFSET 3.483560 -0.000000 -0.000000 
						CHANNELS 3 Zrotation Yrotation Xrotation
						JOINT LeftHandIndex1
						{
							OFFSET 0.715260 -0.000000 -0.000000 
							CHANNELS 3 Zrotation Yrotation Xrotation
							End Site
							{
								OFFSET 0.000000 0.000000 0.000000 
							}
						}
					}
				}
			}
			JOINT RightArm
			{
				OFFSET -3.136600 1.374050 -0.404650 
				CHANNELS 3 Zrotation Yrotation Xrotation
				JOINT RightForeArm
				{
					OFFSET -5.241900 -0.000000 -0.000000 
					CHANNELS 3 Zrotation Yrotation Xrotation
					JOINT RightHand
					{
						OFFSET -3.444170 -0.000000 -0.000000 
						CHANNELS 3 Zrotation Yrotation Xrotation
						JOINT RightHandIndex1
						{
							OFFSET -0.622530 -0.000000 -0.000000 
							CHANNELS 3 Zrotation Yrotation Xrotation
							End Site
							{
								OFFSET 0.000000 0.000000 0.000000 
							}
						}
					}
				}
			}
		}
	}
}
MOTION
Frames: 16
Frame Time: 0.041667
-27.370344 17.309292 8.933682 -173.588912 -7.974797 -179.034546 -12.230250 -31.030379 -8.750014 -8.995731 7.650297 14.955855 0.000828 2.325652 6.257083 13.368400 -18.911200 -70.266000 50.926468 13.553520 12.072030 15.025363 -0.420237 3.065182 -3.963111 -13.236996 -41.385113 -0.828800 -5.808300 16.229100 1.247513 4.265282 -4.418363 -1.959640 1.464395 -14.867185 5.197341 9.769723 18.887128 0.156400 4.270100 14.529100 -78.205916 8.481496 -0.300696 136.913846 -43.351557 -103.443874 0.252454 0.001331 -64.985696 -7.125000 0.000000 0.000000 74.506522 -20.365221 27.010900 -122.553478 50.393798 -87.502637 1.417310 -1.066294 -15.670291 7.125000 0.000000 0.000000 
-27.385308 17.317104 8.952718 -173.672463 -8.118165 -178.960380 -12.371385 -31.227238 -8.674249 -9.066084 7.534664 14.636803 -0.087574 2.715979 6.217790 13.427300 -18.931000 -70.447500 51.163358 14.680327 12.710548 15.110278 -0.048069 2.399692 -4.098274 -13.968299 -42.439488 -0.957300 -6.230200 17.453800 1.165558 4.409855 -4.443094 -2.184768 1.500743 -14.886288 5.265772 9.098148 19.089317 0.259800 3.895200 14.668500 -77.064646 8.267924 -0.826560 138.591864 -42.156910 -104.751869 0.325617 -0.030922 -64.910048 -7.125000 0.000000 0.000000 73.847343 -20.261201 25.633453 -124.845991 49.617081 -89.928229 1.357168 -1.009436 -16.165890 7.125000 0.000000 0.000000 
-27.399832 17.329097 8.971863 -173.730899 -8.247056 -178.797430 -12.436253 -31.662029 -8.517074 -9.141563 7.364851 14.174313 -0.236670 3.377728 5.957535 13.427500 -18.931100 -70.448000 51.561857 16.227062 13.330037 15.182480 0.263891 1.837408 -4.397206 -14.526780 -44.039497 -1.099400 -6.662600 18.719600 1.154768 4.442777 -4.458669 -2.099393 1.523267 -14.811994 5.220556 8.539462 19.351945 0.319300 3.535200 14.911300 -76.051717 8.096520 -1.748964 140.154678 -40.980000 -105.944089 0.404756 -0.059676 -65.105450 -7.125000 0.000000 0.000000 73.131106 -19.811520 24.355770 -126.723405 48.934941 -91.891045 1.305575 -0.951445 -16.341989 7.125000 0.000000 0.000000 
-27.407864 17.342191 8.988477 -173.609230 -8.382465 -178.680470 -12.128910 -31.642760 -8.616226 -9.167175 7.209747 13.756844 -0.364938 4.006621 5.966217 13.493500 -18.953200 -70.651500 51.832887 16.893222 13.758946 15.243138 0.678421 1.018820 -4.443483 -15.111326 -44.700751 -1.108900 -6.690300 18.801000 1.202525 4.397414 -4.494659 -1.848697 1.518363 -14.884933 5.183131 8.146203 19.573340 0.345800 3.269300 15.085400 -75.115186 8.323510 -2.987456 141.703898 -39.751200 -107.098768 0.483523 -0.075288 -65.588202 -7.125000 0.000000 0.000000 72.385487 -19.609667 23.213888 -128.866410 48.071470 -94.027668 1.250154 -0.910173 -15.557086 7.125000 0.000000 0.000000 
-27.418977 17.354074 9.004872 -173.541959 -8.534755 -178.545715 -11.940650 -31.745541 -8.650988 -9.203364 7.058131 13.344737 -0.486617 4.575218 5.927464 13.547700 -18.971100 -70.818300 52.177447 17.898543 14.293580 15.292592 1.059942 0.299325 -4.610553 -15.659391 -45.772973 -1.191000 -6.925200 19.493900 1.220341 4.365680 -4.524078 -1.714407 1.507262 -14.910014 5.176300 7.731817 19.777128 0.396700 2.997500 15.238500 -74.038075 8.432277 -4.236293 143.078992 -38.602176 -108.092405 0.556083 -0.086828 -65.890283 -7.125000 0.000000 0.000000 71.605700 -19.388132 21.987477 -130.900027 47.174993 -96.022518 1.201389 -0.860326 -15.311988 7.125000 0.000000 0.000000 
-27.430420 17.365957 9.020386 -173.459363 -8.697211 -178.397808 -11.714909 -31.803289 -8.717184 -9.233926 6.906536 12.930454 -0.605032 5.125852 5.911395 13.607000 -18.990500 -71.000500 52.496199 18.803960 14.764042 15.328862 1.416825 -0.378792 -4.758466 -16.198167 -46.752669 -1.244700 -7.074100 19.935000 1.245516 4.295657 -4.552980 -1.569197 1.478175 -14.926960 5.178432 7.385037 19.958971 0.446400 2.762300 15.361100 -72.927169 8.616574 -5.631355 144.328738 -37.519716 -108.969871 0.622988 -0.091418 -66.133963 -7.125000 0.000000 0.000000 70.806507 -19.182844 20.793941 -132.883439 46.215774 -97.916133 1.158297 -0.815015 -15.039266 7.125000 0.000000 0.000000 
-27.442413 17.377400 9.035350 -173.370006 -8.865852 -178.241204 -11.468796 -31.828359 -8.804372 -9.259334 6.758321 12.523517 -0.720110 5.653458 5.902587 13.675500 -19.012700 -71.211000 52.766116 19.582152 15.133322 15.353477 1.724025 -0.971476 -4.874912 -16.728677 -47.595423 -1.257200 -7.108000 20.035700 1.266994 4.210472 -4.580558 -1.459824 1.436230 -14.931677 5.195052 7.082437 20.125235 0.499800 2.553700 15.458800 -71.795548 8.834353 -7.101389 145.431032 -36.540911 -109.720482 0.681298 -0.091601 -66.242143 -7.125000 0.000000 0.000000 70.021548 -18.999520 19.603039 -134.785804 45.210046 -99.685751 1.122115 -0.776373 -14.832149 7.125000 0.000000 0.000000 
-27.454737 17.388183 9.050314 -173.291265 -9.033330 -178.074792 -11.224451 -31.884815 -8.875232 -9.281987 6.609969 12.118047 -0.838818 6.176268 5.834221 13.750700 -19.036700 -71.441600 52.964126 20.242268 15.386917 15.366351 1.965391 -1.447471 -4.968663 -17.200891 -48.308485 -1.228200 -7.028700 19.800500 1.279824 4.124106 -4.605333 -1.395535 1.388924 -14.920491 5.218353 6.805991 20.291991 0.553600 2.360800 15.552300 -70.667155 9.047985 -8.600478 146.358854 -35.708523 -110.333975 0.729470 -0.088983 -66.179252 -7.125000 0.000000 0.000000 69.271349 -18.827972 18.415422 -136.561675 44.188547 -101.299111 1.094231 -0.743767 -14.774776 7.125000 0.000000 0.000000 
-27.466400 17.398856 9.065719 -173.228536 -9.190372 -177.901788 -10.986986 -31.998513 -8.911720 -9.304545 6.451327 11.693075 -0.966168 6.711371 5.694263 13.824600 -19.060000 -71.668000 53.054761 20.724209 15.481989 15.368029 2.127796 -1.789914 -5.023164 -17.563407 -48.811548 -1.157300 -6.829900 19.212300 1.285251 4.043410 -4.627436 -1.366342 1.342135 -14.900674 5.234743 6.549654 20.469085 0.597500 2.179700 15.655700 -69.587091 9.237230 -10.098374 147.083865 -35.066486 -110.801227 0.766834 -0.085092 -65.945763 -7.125000 0.000000 0.000000 68.591650 -18.650790 17.254686 -138.164539 43.191438 -102.725445 1.076357 -0.714343 -14.931285 7.125000 0.000000 0.000000 
-27.476303 17.409419 9.081563 -173.184241 -9.331403 -177.728358 -10.761388 -32.187464 -8.897694 -9.328007 6.274732 11.236179 -1.101524 7.256058 5.493250 13.894600 -19.081800 -71.882400 53.027373 21.007853 15.417835 15.360910 2.217684 -2.011941 -5.029721 -17.795864 -49.069966 -1.053600 -6.526900 18.321000 1.284307 3.972057 -4.647037 -1.361020 1.300209 -14.882507 5.239818 6.313673 20.659087 0.625500 2.011400 15.770600 -68.605306 9.397008 -11.549693 147.556682 -34.676229 -111.105329 0.790055 -0.077660 -65.522948 -7.125000 0.000000 0.000000 68.014513 -18.468455 16.146976 -139.576696 42.248447 -103.959293 1.069062 -0.684134 -15.372122 7.125000 0.000000 0.000000 
-27.483455 17.419982 9.097517 -173.162142 -9.457387 -177.550329 -10.553864 -32.465681 -8.830186 -9.354077 6.075867 10.735447 -1.243335 7.808822 5.251682 13.958900 -19.101500 -72.078900 52.897484 21.132290 15.224933 15.346043 2.251882 -2.143210 -4.998009 -17.892374 -49.118436 -0.945500 -6.193000 17.345400 1.277013 3.911434 -4.666250 -1.373374 1.264796 -14.877334 5.236333 6.094832 20.867491 0.638400 1.853900 15.901200 -67.775858 9.536520 -12.903593 147.745354 -34.577022 -111.235898 0.798683 -0.067527 -64.878823 -7.125000 0.000000 0.000000 67.586540 -18.296680 15.104507 -140.778686 41.393463 -104.996478 1.076028 -0.653431 -16.201283 7.125000 0.000000 0.000000 
-27.487746 17.430765 9.113912 -173.161107 -9.570030 -177.362599 -10.362734 -32.829174 -8.724315 -9.382475 5.856274 10.186798 -1.392286 8.381039 5.011296 14.013400 -19.118100 -72.245500 52.674775 21.119813 14.915603 15.324583 2.242965 -2.208417 -4.925559 -17.874697 -48.962455 -0.858100 -5.907400 16.515900 1.263815 3.858091 -4.688210 -1.402910 1.233322 -14.896407 5.231263 5.897238 21.093635 0.641900 1.708100 16.043200 -67.154777 9.677363 -14.101288 147.598735 -34.819827 -111.170385 0.790228 -0.053874 -63.965327 -7.125000 0.000000 0.000000 67.387742 -18.138203 14.128064 -141.722390 40.688175 -105.803726 1.091677 -0.624284 -17.563016 7.125000 0.000000 0.000000 
-27.488956 17.442098 9.130526 -173.198782 -9.672493 -177.152373 -10.211059 -33.245660 -8.606029 -9.416181 5.624302 9.599999 -1.539668 8.954218 4.820171 14.055800 -19.130900 -72.374900 52.371157 21.054196 14.527381 15.296702 2.204381 -2.226345 -4.823120 -17.798434 -48.668880 -0.803100 -5.719500 15.972800 1.244849 3.799176 -4.713133 -1.439230 1.201717 -14.933325 5.238770 5.722146 21.335051 0.648300 1.573500 16.192700 -66.798774 9.845867 -15.109342 147.063603 -35.446071 -110.883988 0.761126 -0.031612 -62.863338 -7.125000 0.000000 0.000000 67.504287 -18.002719 13.361278 -142.343150 40.202168 -106.337148 1.119985 -0.599621 -19.915811 7.125000 0.000000 0.000000 
-27.486755 17.454311 9.147361 -173.281029 -9.771775 -176.911053 -10.101466 -33.670309 -8.515492 -9.454797 5.394111 8.995872 -1.676920 9.510955 4.712310 14.085200 -19.139700 -72.464400 52.019558 21.018525 14.121529 15.265934 2.176211 -2.268585 -4.688084 -17.784437 -48.300479 -0.783900 -5.652500 15.779500 1.219091 3.730010 -4.740352 -1.483268 1.167712 -14.972384 5.265108 5.554739 21.591837 0.665500 1.441600 16.354300 -66.780404 10.062044 -15.899214 146.115174 -36.456656 -110.346670 0.715019 -0.002500 -61.771022 -7.125000 0.000000 0.000000 68.051900 -17.901434 12.795184 -142.539742 40.045095 -106.516126 1.147445 -0.599510 -23.535465 7.125000 0.000000 0.000000 
-27.480814 17.467405 9.164526 -173.383123 -9.882759 -176.632252 -10.001029 -34.050188 -8.499144 -9.492158 5.183014 8.404526 -1.795356 10.030031 4.720791 14.099800 -19.144000 -72.509200 51.724613 21.202219 13.807489 15.238351 2.209148 -2.424410 -4.560273 -17.947715 -48.070924 -0.811900 -5.749900 16.060500 1.186872 3.653094 -4.768571 -1.542812 1.129302 -14.996035 5.310764 5.378480 21.872476 0.696200 1.304500 16.547000 -67.169109 10.340947 -16.399936 144.696301 -37.860431 -109.504247 0.650784 0.037122 -60.948471 -7.125000 0.000000 0.000000 69.106065 -17.865411 12.508519 -142.194567 40.323144 -106.240476 1.165303 -0.639829 -28.795010 7.125000 0.000000 0.000000 
-27.470361 17.481269 9.181470 -173.471271 -10.027845 -176.319402 -9.859035 -34.385719 -8.569986 -9.518170 5.005071 7.857297 -1.898118 10.517473 4.821080 14.100200 -19.144200 -72.510300 51.644194 21.883668 13.767835 15.218341 2.376239 -2.815366 -4.525968 -18.369458 -48.350755 -0.901800 -6.051900 16.935000 1.152907 3.565967 -4.795375 -1.611210 1.083515 -14.982070 5.361415 5.180563 22.193654 0.729900 1.156300 16.803700 -67.993694 10.681841 -16.619640 142.710691 -39.679931 -108.252422 0.573317 0.090783 -60.650183 -7.125000 0.000000 0.000000 70.648050 -17.907988 12.486038 -141.127971 41.168567 -105.340760 1.158513 -0.725120 -35.706181 7.125000 0.000000 0.000000 
